<?xml version="1.0" encoding="utf-8"?>
<!-- Generator: Adobe Illustrator 22.0.0, SVG Export Plug-In . SVG Version: 6.00 Build 0)  -->
<svg version="1.1" id="图层_1" xmlns="http://www.w3.org/2000/svg" xmlns:xlink="http://www.w3.org/1999/xlink" x="0px" y="0px"
	 viewBox="0 0 36 36" style="enable-background:new 0 0 36 36;" xml:space="preserve">
<path d="M33.3,1.8H2.6C1.2,1.8,0,2.9,0,4.3v20.8c0,1.4,1.1,2.5,2.6,2.5h7c1.1,0,1.7,1.4,0.9,2.2l-2.3,2.3C7.7,32.9,8.4,34,9.3,34
	h17.5c1,0,1.6-1,1.1-1.9l-2.3-2.3c-0.8-0.8-0.2-2.2,0.9-2.2h6.7c1.4,0,2.6-1.1,2.6-2.5V4.3C35.9,2.9,34.7,1.8,33.3,1.8z M29.5,24.2
	H6.4c-0.5,0-0.9-0.4-0.9-0.9s0.4-0.9,0.9-0.9h23.2c0.5,0,0.9,0.4,0.9,0.9C30.4,23.8,30,24.2,29.5,24.2z"/>
<g id="图层_2_1_">
</g>
</svg>
