<?xml version="1.0" encoding="utf-8"?>
<!-- Generator: Adobe Illustrator 22.0.0, SVG Export Plug-In . SVG Version: 6.00 Build 0)  -->
<svg version="1.1" id="图层_1" xmlns="http://www.w3.org/2000/svg" xmlns:xlink="http://www.w3.org/1999/xlink" x="0px" y="0px"
	 viewBox="0 0 36 36" style="enable-background:new 0 0 36 36;" xml:space="preserve">
<g>
	<path d="M18,21c5.1,0,7-6,7-6s1.8-2,1.9-4.7c0-1.4-1.3-2.1-1.3-2.1S26.9,0,18,0s-7.6,8.2-7.6,8.2S9,8.8,9.1,10.8
		c0.1,2.3,2,4.2,2,4.2S12.6,21,18,21z M11.2,9.8c0.2,0.3,0.3,1,0.5,1.4c0.2,0.5,0.5,0.6,0.5,0.6s0-0.7,0-1.4c0-0.8,0.2-1.6,0.2-1.6
		s1.2,0.1,2.5-0.3c1.6-0.5,3.3-1.4,3.3-1.4S17.6,7.8,17,8.3c-0.7,0.7-1.5,1.3-1.5,1.3c2.2,0,2-0.2,3.1-0.6c2.1-0.8,4.5-2.2,4.5-2.2
		s0.6,2.5,0.6,3.6c0,0.7,0,1.4,0,1.4s0.3-0.1,0.5-0.6c0.2-0.4,0.2-1.1,0.5-1.4c0.3-0.4,0.9-0.1,0.9,0.9c-0.1,2.1-2.1,3.1-2.1,3.1
		s-1.4,5.3-5.6,5.3c-4.2,0-5.6-5.3-5.6-5.3s-2-1.1-2-3.1C10.3,9.7,10.9,9.4,11.2,9.8z"/>
	<path d="M31.5,32.3c0,0-0.4-6.3-1.8-8.1c-0.5-0.6-1.7-1.3-2.9-1.8c0,0.4,0,0.8,0,1.3c1.3,0.6,2.2,1.9,1.9,3.4l-0.5,2.6
		c-0.2,0.9-0.7,1.6-1.5,2c-0.2,0.3-0.5,0.6-0.9,0.6c-0.6,0-1-0.5-1-1c0-0.6,0.5-1,1-1c0.2,0,0.3,0,0.5,0.1c0.5-0.3,0.9-0.7,1-1.3
		l0.3-1.7c0.2-1.1-0.6-2.1-1.7-2.3c-1.1-0.2-2.2,0.5-2.4,1.5l-0.3,1.7c-0.1,0.4,0,0.8,0.2,1.2c0.6,0,1,0.5,1,1c0,0.6-0.5,1-1,1
		s-1-0.4-1-1c-0.4-0.6-0.5-1.3-0.4-2.1l0.5-2.6c0.3-1.4,1.6-2.4,3.1-2.4c0.1-0.5,0-1.1-0.1-1.6C24.1,21.3,23,21,23,21
		s-0.3,1.4-1.2,2.5c-1.5,2-3.8,4.3-3.8,4.3s-2.3-2.3-3.8-4.3C13.3,22.3,13,21,13,21s-1.1,0.3-2.4,0.8c-0.3,0.6-1,2-0.8,3.3
		c0.1,1.1,0.8,2.1,1.1,2.5c0.1,0,0.2,0,0.3,0c0.9,0,1.7,0.8,1.7,1.7c0,0.9-0.7,1.7-1.7,1.7c-0.9,0-1.7-0.8-1.7-1.7
		c0-0.3,0.1-0.7,0.3-0.9c0,0-1.1-1.2-1.3-2.7c-0.2-1.3,0.1-2.5,0.3-3c-1,0.5-2,1-2.4,1.6c-1.5,1.8-1.8,8.1-1.8,8.1s-0.3,1.3,0.3,2
		C5.5,35.2,7,35.3,7,35.3s5.5,0.8,11,0.8c5.6,0,11.3-0.8,11.3-0.8s1.5-0.2,2.1-0.9C31.8,33.6,31.5,32.3,31.5,32.3z"/>
</g>
</svg>
