<?xml version="1.0" encoding="utf-8"?>
<!-- Generator: Adobe Illustrator 22.0.0, SVG Export Plug-In . SVG Version: 6.00 Build 0)  -->
<svg version="1.1" id="图层_1" xmlns="http://www.w3.org/2000/svg" xmlns:xlink="http://www.w3.org/1999/xlink" x="0px" y="0px"
	 viewBox="0 0 36 36" style="enable-background:new 0 0 36 36;" xml:space="preserve">
<path d="M26.2,35.5c-2.9,0.3-7,0.5-10,0.5C11.5,36,3.6,35.4,3,34.8c-0.6-0.6-0.6-5.4,0.6-9.7s8.4-4.8,8.4-4.8c0,3.6,4.2,6,4.2,6
	s4.2-2.4,4.2-6c0,0,6.6,0.5,8.2,4.2c-0.6-0.3-1.2-0.3-1.8,0c-0.7,0.4-1.2,1.1-1.2,1.9v0.4h-2.3c-1.2,0-2.2,1-2.2,2.2v2.5
	c0,1.2,1,2.2,2.2,2.2h2.3v0.4C25.7,34.6,25.9,35.1,26.2,35.5z M26.5,17.9c0,0-6,2.4-10.3,2.4S6,17.9,6,17.9C7.8,16.1,6.6,13.7,7.8,7
	s6-6.6,6-6.6S17.4-0.8,21,1s4.2,7.8,4.2,11.5S26.5,17.9,26.5,17.9z M21.1,11.9c0-3-1.7-3.2-3-3.6c-1.8-0.6-4.2-3-4.2-3
	s-3,3.6-2.4,6.6c0.6,3,3,6,4.8,6S21.1,14.9,21.1,11.9z M33.3,29.3l-4.8-3.8c-0.8-0.6-1.9-0.1-1.9,0.9v1.3h-3.2
	c-0.7,0-1.3,0.6-1.3,1.3v2.5c0,0.7,0.6,1.3,1.3,1.3h3.2v1.3c0,1,1.2,1.6,1.9,0.9l4.8-3.8C33.9,30.7,33.9,29.8,33.3,29.3z"/>
</svg>
