<?xml version="1.0" encoding="utf-8"?>
<!-- Generator: Adobe Illustrator 22.1.0, SVG Export Plug-In . SVG Version: 6.00 Build 0)  -->
<svg version="1.1" xmlns="http://www.w3.org/2000/svg" xmlns:xlink="http://www.w3.org/1999/xlink" x="0px" y="0px"
	 viewBox="0 0 30 30" style="enable-background:new 0 0 30 30;" xml:space="preserve">
<style type="text/css">
	.st0{display:none;}
	.st1{display:inline;}
</style>
<g id="图层_1" class="st0">
	<g class="st1">
		<g>
			<path d="M28.8,24.4L22.1,8.8c1.4-0.3,2.4-1.5,2.4-2.9l0-2.3c0-0.8-0.3-1.5-0.9-2.1c-0.6-0.6-1.3-0.9-2.1-0.9l-12.9,0
				c-0.8,0-1.5,0.3-2.1,0.9C6,2,5.7,2.8,5.7,3.5l0,2.4c0,1.4,0.9,2.5,2.3,2.9L1.2,24.6c-0.4,1.1-0.3,2.3,0.4,3.3
				c0.7,1,1.8,1.5,2.9,1.5l21.1-0.1c0.9,0,1.7-0.3,2.4-0.9l0.1-0.1c0.2-0.2,0.3-0.4,0.5-0.6C29.1,26.7,29.2,25.5,28.8,24.4z
				 M11.5,6.5l-2.9,0c-0.2,0-0.3-0.1-0.4-0.2C8.1,6.2,8.1,6,8.1,5.9l0-2.3c0-0.2,0.1-0.3,0.2-0.4C8.3,3,8.5,2.9,8.6,2.9l12.9,0
				c0.2,0,0.3,0.1,0.4,0.2c0.1,0.1,0.2,0.3,0.2,0.4v2.4c0,0.2-0.1,0.3-0.2,0.4c-0.1,0.1-0.3,0.2-0.4,0.2h-2.9l1.6,3.8
				c-5,0-7.9,2.2-10.4,4.3c-0.8,0.6-1.6,1.3-2.5,1.8L11.5,6.5z M26.5,26.4l-0.2,0.2c-0.2,0.2-0.5,0.3-0.8,0.3L4.5,27
				c-0.4,0-0.8-0.2-1-0.5c-0.2-0.3-0.3-0.7-0.1-1.1l3.1-7.3c4.6-2.3,7-6.9,14.2-6.7l5.9,13.8C26.8,25.6,26.8,26,26.5,26.4z
				 M11.7,18.4c-0.9-0.4-1.9-0.2-2.6,0.5c-0.9,0.9-0.9,2.4,0,3.3c0.7,0.7,1.7,0.9,2.6,0.5c0.9-0.4,1.5-1.2,1.5-2.2
				C13.1,19.6,12.6,18.7,11.7,18.4z M11.6,21.4c-0.5,0.5-1.2,0.5-1.7,0c-0.2-0.2-0.3-0.5-0.3-0.8s0.1-0.6,0.3-0.8
				c0.5-0.5,1.2-0.5,1.7,0C12.1,20.2,12.1,20.9,11.6,21.4z M15.4,14.3c-1.1,1.1-1.1,3,0,4.2c1.1,1.1,3,1.1,4.2,0
				c1.1-1.1,1.1-3,0-4.2C18.4,13.1,16.5,13.1,15.4,14.3z M18.7,17.6c-0.7,0.7-1.8,0.7-2.5,0c-0.7-0.7-0.7-1.8,0-2.5
				c0.7-0.7,1.8-0.7,2.5,0C19.4,15.8,19.4,16.9,18.7,17.6z M18,21.9c-0.4,0.1-0.7,0.4-0.8,0.8c-0.1,0.4,0,0.8,0.3,1.1
				c0.3,0.3,0.7,0.4,1.1,0.3c0.4-0.1,0.7-0.4,0.8-0.8c0.1-0.4,0-0.8-0.3-1.1C18.8,21.9,18.4,21.8,18,21.9z"/>
		</g>
	</g>
</g>
<g id="图层_2">
	<g>
		<path d="M29,6.4c-0.3-0.3-0.8-0.5-1.3-0.5h-0.8c-0.5,0-0.9,0.2-1.3,0.5l-2.5,2.4V7.7C23.2,6.2,22,5,20.5,5H3.2
			C1.7,5,0.5,6.2,0.5,7.7v14.5c0,1.5,1.2,2.7,2.7,2.7h17.3c0.7,0,1.4-0.3,1.9-0.8c0.5-0.5,0.8-1.2,0.8-1.9v-1.1l2.5,2.4
			c0.3,0.3,0.8,0.5,1.3,0.5h0.8c0.5,0,0.9-0.2,1.3-0.5c0.3-0.3,0.5-0.8,0.5-1.3V7.7C29.5,7.2,29.3,6.8,29,6.4z M21.4,22.3
			c0,0.5-0.4,0.9-0.9,0.9H3.2c-0.5,0-0.9-0.4-0.9-0.9V7.7c0-0.5,0.4-0.9,0.9-0.9h17.3c0.5,0,0.9,0.4,0.9,0.9V22.3z M27.7,22.3h-0.9
			l-4.5-4.5v-5.5l4.5-4.5h0.9V22.3z M15.6,14.6L9.7,11c-0.1-0.1-0.3-0.1-0.5,0C9.1,11,9,11.2,9,11.4l0,7.3C8.9,18.8,9,19,9.2,19
			c0.1,0,0.1,0.1,0.2,0.1c0.1,0,0.2,0,0.2-0.1l5.9-3.6c0.1-0.1,0.2-0.2,0.2-0.4C15.8,14.8,15.7,14.7,15.6,14.6z M9.9,17.8l0-5.7
			l4.6,2.8L9.9,17.8z"/>
	</g>
</g>
</svg>
