<?xml version="1.0" encoding="utf-8"?>
<!-- Generator: Adobe Illustrator 22.0.0, SVG Export Plug-In . SVG Version: 6.00 Build 0)  -->
<svg version="1.1" id="图层_1" xmlns="http://www.w3.org/2000/svg" xmlns:xlink="http://www.w3.org/1999/xlink" x="0px" y="0px"
	 viewBox="0 0 36 36" style="enable-background:new 0 0 36 36;" xml:space="preserve">
<style type="text/css">
	.st0{fill:#9C9AB7;}
	.st1{fill:#820B0B;}
	.st2{fill:none;}
	.st3{fill:#F2F2F2;}
	.st4{fill:#CCCCCC;}
</style>
<path class="st3" d="M32.3,31.6l0.2,1.9l-1.6-1c-1.8-1.2-4.1-2.5-4.7-2.5c-2.4,0.7-5,0.9-7.5,0.5c-0.5-0.1-0.8-0.5-0.8-1
	c0-0.1,0.1-0.3,0.2-0.4c7.5-1.3,13.3-7,13.3-13.8c0-2.1-0.6-4.1-1.6-6c0-0.1,0.1-0.2,0.2-0.4c0.3-0.4,0.9-0.5,1.2-0.2
	c3,2.4,4.8,5.8,4.8,9.3c0,3.1-1.3,6-3.7,8.3C32.1,26.8,32,29.3,32.3,31.6z M29.6,15.1c0,6.9-6.6,12.6-14.8,12.6
	c-1.7,0-3.4-0.2-5-0.7c-0.6,0-2.9,1.3-4.7,2.5l-1.6,1l0.2-1.9c0.2-2.3,0.2-4.8-0.1-5.2C1.3,21.1,0,18.1,0,15.1
	C0,8.1,6.6,2.5,14.8,2.5C22.9,2.5,29.6,8.1,29.6,15.1z M21.4,14.8c0-0.9-0.7-1-1-1c-2.4,0-4.5,0-4.5,0s0-2.2,0-4.6
	c0-0.4,0-1.1-0.9-1.1C14,8.2,14,8.9,14,9.2c0,2.5,0,4.6,0,4.6s-2.4,0-4.8,0c-0.3,0-0.8,0-0.8,1c0,0.9,0.6,1,0.9,1c2.4,0,4.7,0,4.7,0
	s0,2.3,0,4.8c0,0.3,0,0.9,0.9,0.9c0.9,0,0.9-0.6,0.9-0.9c0-2.6,0-4.8,0-4.8s2.2,0,4.5,0C20.7,15.8,21.4,15.8,21.4,14.8z"/>
</svg>
