<?xml version="1.0" encoding="utf-8"?>
<!-- Generator: Adobe Illustrator 22.0.0, SVG Export Plug-In . SVG Version: 6.00 Build 0)  -->
<svg version="1.1" id="图层_1" xmlns="http://www.w3.org/2000/svg" xmlns:xlink="http://www.w3.org/1999/xlink" x="0px" y="0px"
	 viewBox="0 0 36 36" style="enable-background:new 0 0 36 36;" xml:space="preserve">
<g>
	<path d="M30.8,8.1c0-1.9-1.5-3.4-3.4-3.4c-1.9,0-3.4,1.5-3.4,3.4v2.4h6.8V8.1z M29.5,9.8h-1.8V6.2c0.6,0,1.8,0.3,1.8,1.8
		S29.5,9.8,29.5,9.8z"/>
	<path d="M35.7,21.1l-0.3-0.6c0,0,0-0.1-0.1-0.1L32,13c-0.2-0.6-0.7-0.9-1.3-0.9h-5.3c-0.8,0-1.4,0.6-1.4,1.4v9.2h-2.2V9.2
		c0-0.8-0.7-1.5-1.5-1.5H2.7c-0.8,0-1.5,0.7-1.5,1.5v14.9C0.5,24.2,0,24.8,0,25.5v0.2c0,0.8,0.7,1.5,1.5,1.5h0.6
		c0.8-1.6,2.5-2.8,4.5-2.8s3.7,1.1,4.5,2.8h4.2h3.8h4.2c0.8-1.6,2.5-2.8,4.5-2.8s3.7,1.1,4.5,2.8H33h2.2c0.4,0,0.8-0.3,0.8-0.8v-3.2
		v-0.8C36,22,35.9,21.5,35.7,21.1z M14.8,17.6h-2v2h-2.5v-2h-2v-2.5h2v-2h2.5v2h2V17.6z M31.8,21.5c-1.5,0-2.9,0-4.2,0
		c-1.1,0-1.4-0.6-1.4-1.4c0-1.1,0-1.8,0-4.1c0-0.4,0.6-1.4,2.1-1.4c1,0,1.3,0,1.3,0c0.2,0,0.5,0.3,0.5,0.3l2.3,4.5
		C33.2,20.5,32.5,21.5,31.8,21.5z"/>
	<circle cx="6.7" cy="29.5" r="3.5"/>
	<circle cx="27.9" cy="29.5" r="3.5"/>
</g>
</svg>
