<?xml version="1.0" encoding="utf-8"?>
<!-- Generator: Adobe Illustrator 22.0.0, SVG Export Plug-In . SVG Version: 6.00 Build 0)  -->
<svg version="1.1" xmlns="http://www.w3.org/2000/svg" xmlns:xlink="http://www.w3.org/1999/xlink" x="0px" y="0px"
	 viewBox="0 0 36 36" style="enable-background:new 0 0 36 36;" xml:space="preserve">
<style type="text/css">
	.st0{fill:#820B0B;}
	.st1{fill:none;}
	.st2{fill:#CCCCCC;}
	.st3{fill-rule:evenodd;clip-rule:evenodd;}
</style>
<g id="图层_1">
	<path d="M34.2,18.4v-1.2c0.1-0.5-0.4-0.9-0.8-0.9h-0.5h-5.3H15.5l-3.8-3.5c-0.2-0.2-0.4-0.3-0.6-0.2H5.8l-1.9-0.1H2.7
		c-0.5,0-0.9,0.4-0.9,0.9v5c0,0.1,0,0.1,0,0.2v13.6c0,0.1,0,0.1,0,0.2V33c0,0.5,0.4,0.9,0.9,0.9h0.5c0.1,0,0.2,0,0.3,0h29.2
		c0.1,0,0.2,0,0.3,0h0.5c0.5,0,0.9-0.4,0.9-0.9v-0.5c0-0.1,0-0.2,0-0.2V18.7C34.2,18.6,34.2,18.5,34.2,18.4z"/>
	<g>
		<g>
			<path class="st3" d="M31.5,3.5H8.3c-0.5,0-0.9,0.4-0.9,0.9v2.4c0,0.1,0,0.2,0.1,0.3H4.7C4.2,7.1,3.7,7.5,3.7,8v2.4
				c0,0.5,0.4,0.9,0.9,0.9s0.9-0.4,0.9-0.9V8.9h21.3v5.8c0,0.5,0.4,0.9,0.9,0.9c0.5,0,0.9-0.4,0.9-0.9V8c0-0.5-0.4-0.9-0.9-0.9H9.2
				c0-0.1,0.1-0.2,0.1-0.3V5.3h21.3v9.4c0,0.5,0.4,0.9,0.9,0.9s0.9-0.4,0.9-0.9V4.4C32.4,3.9,32,3.5,31.5,3.5z"/>
		</g>
	</g>
</g>
<g id="图层_2">
</g>
</svg>
