<?xml version="1.0" encoding="utf-8"?>
<!-- Generator: Adobe Illustrator 22.0.0, SVG Export Plug-In . SVG Version: 6.00 Build 0)  -->
<svg version="1.1" id="图层_1" xmlns="http://www.w3.org/2000/svg" xmlns:xlink="http://www.w3.org/1999/xlink" x="0px" y="0px"
	 viewBox="0 0 36 36" style="enable-background:new 0 0 36 36;" xml:space="preserve">
<path d="M17.1,0c0,0-3.2,0-4.8,1.1l1.6,4.3c0,0,1.6-0.5,3.2-0.5s3.2,0.5,3.2,0.5L22,1.1C20.4,0,17.1,0,17.1,0z M18.7,3.1h-1.1v1.1
	h-1.1V3.1h-1.1V2h1.1V1h1.1v1.1h1.1V3.1z M26.4,19.9c0,0-1.1-1.6-1.1-4.8c0-3-0.5-8-3.3-9.9l-0.6,1.6c0,0-2.1-0.7-4.3-0.7
	s-4.3,0.7-4.3,0.7l-0.5-1.4c-1.1,0.8-2.1,2.3-2.6,4.8c-1.1,5.9,0,8.1-1.6,9.7c0,0,5.4,2.1,9.1,2.1S26.4,19.9,26.4,19.9z M13,14.5
	c-0.5-2.7,2.1-5.9,2.1-5.9s2.1,2.1,3.8,2.7c1.1,0.4,2.7,0.5,2.7,3.2s-2.7,5.4-4.3,5.4S13.5,17.2,13,14.5z M28.5,26.3
	C27.4,22.6,21,22,21,22c0,3-3.4,5.1-3.7,5.3c-0.4-0.2-3.7-2.3-3.7-5.3c0,0-6.4,0.5-7.5,4.3S5,34.4,5.6,34.9C6,35.5,12.9,36,17.2,36
	l0,0l0,0l0,0l0,0c4.3,0,11.2-0.5,11.7-1.1C29.5,34.4,29.5,30.1,28.5,26.3z M13.5,31.2c-1,1.2-2,1.6-2,1.6s-1-0.3-2-1.6
	c-1-1.2-1.3-2.7,0.2-3.3c1.1-0.4,1.8,0.5,1.8,0.5s0.7-1,1.8-0.5C14.8,28.5,14.5,30,13.5,31.2z"/>
</svg>
