<?xml version="1.0" encoding="utf-8"?>
<!-- Generator: Adobe Illustrator 22.0.0, SVG Export Plug-In . SVG Version: 6.00 Build 0)  -->
<svg version="1.1" id="图层_3_x5F_复制" xmlns="http://www.w3.org/2000/svg" xmlns:xlink="http://www.w3.org/1999/xlink"
	 x="0px" y="0px" viewBox="0 0 36 36" style="enable-background:new 0 0 36 36;" xml:space="preserve">
<g>
	<circle cx="7.9" cy="27.3" r="3.5"/>
	<circle cx="28.4" cy="27.3" r="3.5"/>
	<path d="M34.9,16.2l-3.1-5.5c-0.6-0.8-1.1-1.4-2.1-1.4h-4.8V5.2c0-0.8-0.6-1.4-1.4-1.4H1.4C0.6,3.8,0,4.4,0,5.2v20.7
		c0,0.8,0.6,1.4,1.4,1.4H2h1.3c0-2.6,2.1-4.6,4.6-4.6c2.5,0,4.6,2,4.6,4.6h11.4c0-2.6,2.1-4.6,4.6-4.6c2.5,0,4.6,2,4.6,4.6h1h0.4
		c0.8,0,1.4-0.6,1.4-1.4V19C35.9,17.7,34.9,16.2,34.9,16.2z M31.8,19c-1.5,0-2.9,0-4.2,0c-1.1,0-1.4-0.6-1.4-1.4c0-1.1,0-1.8,0-4.1
		c0-0.4,0.6-1.4,2.1-1.4c1,0,1.3,0,1.3,0c0.2,0,0.5,0.3,0.5,0.3l2.3,4.5C33.2,18.1,32.5,19,31.8,19z"/>
</g>
</svg>
